# xmcd
#
# Track frame offsets:
#	150
#	37165
#	58999
#	73732
#	95157
#	119950
#	142670
#	165101
#	173384
#
# Disc length: 2453 seconds
#
# Revision: 0
# Processed by: cddbd v1.5.2PL0 Copyright (c) Steve Scherf et al.
# Submitted via: EasyCDDAExtractor 16.0.8.1
#
DISCID=7e099309
DTITLE=김준희 해금산조 네바탕 - 김준희 해금산조 네바탕 CD1
DYEAR=2012
DGENRE=National Folk
TTITLE0=한범수류 - 진양
TTITLE1=한범수류 - 중모리
TTITLE2=한범수류 - 중중모리
TTITLE3=한범수류 - 지진모리
TTITLE4=지영희류 - 진양
TTITLE5=지영희류 - 중모리
TTITLE6=지영희류 - 중중모리
TTITLE7=지영희류 - 늦은자진모리
TTITLE8=지영희류 - 자진모리
EXTD=
EXTT0=
EXTT1=
EXTT2=
EXTT3=
EXTT4=
EXTT5=
EXTT6=
EXTT7=
EXTT8=
PLAYORDER=
